<svg xmlns="http://www.w3.org/2000/svg" viewBox="0 0 754 118"><defs><style>.cls-1{fill:#fff;}</style></defs><title>sensorium</title><g id="Layer_2" data-name="Layer 2"><g id="Layer_2-2" data-name="Layer 2"><path class="cls-1" d="M81,37H55s0-14-12-14S27,42,43,42,81,52,81,74s-22,33-37,33C26,107,6,98,6,70H32S29,84,43,84s17-19,0-19S8,52,8,45H0S4,0,43,0,81,37,81,37Z"/><path class="cls-1" d="M332,37H306s0-14-12-14-16,19,0,19,38,10,38,32-22,33-37,33c-18,0-38-9-38-37h26s-3,14,11,14,17-19,0-19-35-13-35-20h-8s4-45,43-45S332,37,332,37Z"/><polygon class="cls-1" points="158 6 91 6 85 26 91 26 91 105 158 105 158 85 117 85 117 69 153 69 153 49 116 49 116 26 158 27 158 6"/><polygon class="cls-1" points="170 6 164 26 170 26 170 105 196 105 196 47 243 118 243 7 218 6 218 41 195 6 170 6"/><path class="cls-1" d="M389,6c-36,0-54,34-54,56h6c0,18,23,43,49,43s48-24,48-49C438,39,425,6,389,6Zm.5,73A23.5,23.5,0,1,1,413,55.5,23.5,23.5,0,0,1,389.5,79Z"/><path class="cls-1" d="M523.5,43.5C523.5,9,495,6,476,6H450l-5,20h5v79h24.5V81h13.14l14.5,27.5,20.36-4-14-28C517.5,67.5,523.5,65,523.5,43.5ZM474.5,61V26S504,21,504,43,474.5,61,474.5,61Z"/><polygon class="cls-1" points="534 6 559 6 559 105 534 105 534 26 528 26 534 6"/><path class="cls-1" d="M572,6h25V61c0,9,1,17,11,17s11-7,11-17V6h26V59c0,27-9,46-36,46s-37-18-37-44V26h-7Z"/><polygon class="cls-1" points="651 26 657 6 682 6 705 47 729 6 754 6 754 105 729 105 729 53 712 81 699 81 683 53 683 105 656 105 656 26 651 26"/></g></g></svg>