<svg version="1" xmlns="http://www.w3.org/2000/svg" width="1308" height="1308" viewBox="0 0 981.000000 981.000000"><path d="M440 .7c-1.4.3-5.2 1.8-8.5 3.4-6 2.8-8.6 4.2-20.3 11.2-3.5 2-6.5 3.7-6.7 3.7-.3 0-2.8 1.5-5.7 3.3-2.9 1.9-7.8 4.7-10.8 6.4-3 1.7-28.2 16.2-56 32.3-27.8 16.1-51.9 30-53.5 30.9-12.6 6.6-31.5 18.3-35.4 21.8-16.3 14.5-17.3 41.4-2 57.5 3 3.2 4.8 5.6 4 5.2-.9-.3-4.4-1.1-7.8-1.7-16-2.8-33.4 5.4-41.8 19.7-5.6 9.6-5.5 7-5.5 120.6 0 91.3.2 105.3 1.6 110.5 3.7 14.6 14.4 25.9 29.3 31.1 5.4 1.9 8.3 2.3 15.6 2.1 5-.2 10.1-.9 11.5-1.6 1.4-.8-.3 1.2-3.7 4.3-4.6 4.2-7.2 7.7-10 13.3-3.6 7.3-3.8 8.1-3.8 17.7s.2 10.5 3.7 17.7c2.6 5.2 5.4 9.1 8.6 12 2.7 2.4 17.9 11.9 33.8 21.1 34.2 19.7 100.7 58.1 114.9 66.3 5.5 3.2 11.6 6.7 13.5 7.8 1.9 1 5.3 3 7.6 4.3l4.1 2.4 3.6-5.3c7.7-11.1 19-20.6 34.2-28.6 6.3-3.3 9.9-7.4 11.5-13.2 1.5-5.1 1.3-164.1-.1-169-1.7-5.6-5.9-10.1-12.8-13.7-7.8-4.1-10.5-5.6-11.1-6.2-.3-.3-2.2-1.8-4.3-3.4-16.8-12.5-28.8-33.1-32.2-55.1-2.3-15 1.4-35.8 8.9-50.4.9-1.7 1.6-3.4 1.5-3.7 0-.4.3-1 .8-1.3.5-.3 2.4-2.7 4.1-5.2 9.4-13.9 26.9-26.5 43.7-31.5 6.7-2 7-2.1 14-3 8.4-1.1 20.9-.6 28.5 1.1 8.3 1.8 29 10.8 29 12.6 0 .4.9 1 2 1.4 2.9.9 17 15.2 20.5 20.7 1.7 2.7 3.4 4.8 3.8 4.8 1 0 16.5-8.9 58.7-33.4 2.5-1.4 8.1-4.6 12.5-7.1 4.4-2.6 9.4-5.4 11-6.4 1.7-1 14.9-8.7 29.5-17.1 14.6-8.4 30.3-17.5 34.9-20.1 4.6-2.7 8.5-4.9 8.6-4.9.8 0 14.5-8.7 17.6-11.1 11.1-8.7 16.7-26.3 13.5-41.9-1-4.3-5.8-13.2-9.5-17.3-3-3.3-16-12.7-17.6-12.7-.3 0-3.4-1.8-7-4s-6.7-4-6.9-4c-.3 0-4.1-2.3-8.6-5-4.5-2.8-8.3-5-8.5-5-.4 0-27-15.3-29.5-17-.8-.6-2.2-1.3-3-1.7-1.2-.6-8.3-4.7-23-13.2-11.6-6.8-63.8-36.8-70.7-40.6-16.5-9.2-31-10.2-46.6-3-13 5.9-24 19.8-26.6 33.5l-.9 4.5-.1-4.5c-.4-12.2-4.1-22-11.3-29.5-4.4-4.8-12.5-9.9-18-11.6-4-1.2-17.3-2-20.8-1.2z"/><path d="M558.2 365.7c-6.7 10.5-18.5 20.7-31.7 27.7-8.6 4.6-10.8 6.6-13.4 12.2-2.1 4.3-2.1 5.8-2.1 87.1 0 78.6.1 83 1.9 86.8 2.6 5.5 5.2 8 12.2 11.5 17.8 9 30.7 21.9 39.2 39.1 16.1 32.6 9.6 71.5-16.2 96.7-22.5 22-54.6 30.1-83.1 21.1-19-6.1-35.4-18-45.5-33.3-4-5.9-4.2-6-10.5-2.1-1.9 1.2-20.1 11.8-40.5 23.5-20.3 11.7-41 23.6-46 26.5-4.9 2.9-19.1 11.1-31.5 18.3-12.4 7.1-24.1 13.9-26 15-1.9 1.1-5.6 3.2-8.2 4.6-15.3 8.3-21.4 13.8-26 23.5-7.1 14.8-3.1 33.8 9.2 44.4 2.1 1.7 9.6 6.5 16.6 10.6 28.8 16.7 56.2 32.5 60.4 34.9 2.5 1.4 10.5 6.1 17.9 10.4 7.4 4.3 13.5 7.8 13.7 7.8.1 0 3.8 2.1 8.1 4.6 4.3 2.6 9.4 5.6 11.3 6.7 4.1 2.2 30.5 17.6 33.5 19.4 1.1.7 3.1 1.8 4.5 2.5 1.4.6 3.6 2 5 2.9 6.3 4.2 18 9.9 23.3 11.2 7 1.9 17.8 1.5 24.7-.8 14.1-4.7 27.1-18.7 29.5-31.8.4-2 1-3.7 1.4-3.7.3 0 1.2 2.3 1.9 5.2 3.4 14.5 16.6 27.1 32.6 31.4 10.1 2.7 26.3.1 34.6-5.6 1.4-1 10.6-6.4 20.5-12 9.9-5.7 23.2-13.3 29.5-17 6.3-3.7 25.5-14.7 42.5-24.5 17.1-9.8 34.8-20 39.5-22.8 4.7-2.7 10.5-6.1 13-7.5 12.5-6.9 21.9-12.9 25.3-16.1 20-18.9 19.7-50.7-.6-69.2-4.5-4.2-4.5-4.6 0-2.8 4.3 1.7 18.3 2 24 .5 18.5-4.9 32.6-19.2 36.3-36.9.7-3.7 1-35 .8-104.2l-.3-99-2.2-5.4c-5.5-13.5-15.3-23-28.7-28-7.2-2.7-18.7-3.7-24-2.2l-4 1 3.8-3.1c11.9-9.8 17.8-25.1 15.2-39.8-2-11.3-11.6-24.1-22.1-29.5-2.1-1.1-7.4-4.1-11.8-6.8-4.3-2.6-8-4.7-8.2-4.7-.1 0-6.7-3.8-14.6-8.4-7.9-4.6-24.5-14.2-36.9-21.3-23.2-13.4-72.4-41.8-75-43.4-9-5.3-17.4-9.9-18.4-9.9-.7 0-2.7 2.1-4.4 4.7z"/></svg>